<svg width="512" height="512" viewBox="0 0 512 512" fill="none" xmlns="http://www.w3.org/2000/svg">
<rect width="512" height="512" rx="16" fill="#222222"/>
<rect x="186" y="32" width="140" height="140" rx="12" fill="#5E95BC"/>
<rect x="32" y="32" width="140" height="140" rx="12" fill="#5E95BC"/>
<rect x="186" y="186" width="140" height="140" rx="12" fill="#5E95BC"/>
<rect x="340" y="32" width="140" height="140" rx="12" fill="#5E95BC"/>
<rect x="326" y="480" width="140" height="140" rx="12" transform="rotate(-180 326 480)" fill="#5E95BC"/>
<rect x="32" y="326" width="140" height="140" rx="12" transform="rotate(-90 32 326)" fill="#5E95BC"/>
<rect x="480" y="186" width="140" height="140" rx="12" transform="rotate(90 480 186)" fill="#5E95BC"/>
<rect x="480" y="480" width="140" height="140" rx="12" transform="rotate(-180 480 480)" fill="#5E95BC"/>
<path d="M172 468C172 474.627 166.627 480 160 480L44 480C37.3726 480 32 474.627 32 468L32 352C32 345.373 37.3726 340 44 340L160 340C166.627 340 172 345.373 172 352L172 468Z" fill="#5E95BC"/>
</svg>
